<svg width="450" height="450" viewBox="0 0 450 450" fill="none" xmlns="http://www.w3.org/2000/svg">
<g clip-path="url(#clip0_79_1655)">
<path d="M429.084 42.1733H249.185C237.649 42.1733 228.266 51.5565 228.266 63.0896V155.916C228.266 167.45 237.651 176.833 249.185 176.833H264.98V213.681C264.98 216.229 266.467 218.541 268.785 219.602C269.65 219.997 270.573 220.192 271.49 220.192C273.025 220.192 274.542 219.65 275.746 218.606L324.094 176.832H429.081C440.617 176.832 449.999 167.448 449.999 155.915V63.0896C450.002 51.5555 440.617 42.1733 429.084 42.1733ZM301.023 105.622L291.417 114.988L293.685 128.212C293.849 129.167 293.457 130.129 292.672 130.698C292.231 131.02 291.706 131.184 291.178 131.184C290.776 131.184 290.368 131.087 289.996 130.892L278.121 124.649L266.247 130.892C265.389 131.342 264.35 131.267 263.567 130.698C262.784 130.13 262.393 129.167 262.557 128.212L264.824 114.988L255.216 105.622C254.526 104.947 254.273 103.936 254.572 103.017C254.87 102.097 255.667 101.426 256.626 101.286L269.903 99.3575L275.84 87.3265C276.27 86.458 277.153 85.9085 278.121 85.9085C279.088 85.9085 279.973 86.458 280.4 87.3265L286.339 99.3575L299.613 101.286C300.573 101.426 301.366 102.097 301.668 103.017C301.966 103.936 301.716 104.948 301.023 105.622ZM362.038 105.622L352.43 114.988L354.7 128.212C354.862 129.167 354.47 130.129 353.687 130.698C353.246 131.02 352.723 131.184 352.193 131.184C351.788 131.184 351.385 131.087 351.007 130.892L339.134 124.649L327.26 130.892C326.402 131.342 325.365 131.267 324.582 130.698C323.797 130.13 323.406 129.167 323.569 128.212L325.837 114.988L316.231 105.622C315.54 104.947 315.288 103.936 315.587 103.017C315.885 102.097 316.679 101.426 317.641 101.286L330.916 99.3575L336.855 87.3265C337.283 86.458 338.168 85.9085 339.134 85.9085C340.102 85.9085 340.984 86.458 341.413 87.3265L347.352 99.3575L360.628 101.286C361.588 101.426 362.381 102.097 362.681 103.017C362.981 103.936 362.729 104.948 362.038 105.622ZM423.05 105.622L413.442 114.988L415.708 128.212C415.873 129.167 415.484 130.129 414.699 130.698C414.256 131.02 413.733 131.184 413.203 131.184C412.798 131.184 412.395 131.087 412.019 130.892L400.144 124.649L388.268 130.892C387.414 131.342 386.375 131.267 385.592 130.698C384.807 130.13 384.418 129.167 384.579 128.212L386.849 114.988L377.241 105.622C376.55 104.947 376.3 103.936 376.597 103.017C376.895 102.097 377.693 101.426 378.65 101.286L391.928 99.3575L397.867 87.3265C398.293 86.458 399.179 85.9085 400.144 85.9085C401.11 85.9085 401.998 86.458 402.426 87.3265L408.365 99.3575L421.64 101.286C422.598 101.426 423.392 102.097 423.694 103.017C423.993 103.936 423.743 104.948 423.05 105.622Z" fill="#80297D"/>
<path d="M143.812 106.253C99.8134 106.253 75.4626 129.053 75.9077 172.986C76.5532 233.157 102.122 269.659 143.812 269.022C143.812 269.022 211.683 271.773 211.683 172.986C211.683 129.053 188.753 106.253 143.812 106.253Z" fill="#80297D"/>
<path d="M263.862 314.693L196.044 287.654L180.164 274.271C175.97 270.727 169.775 270.989 165.882 274.855L143.805 296.813L121.662 274.85C117.769 270.988 111.581 270.739 107.393 274.271L91.5089 287.654L23.6912 314.696C1.85275 323.393 1.87157 400.733 -0.00561523 407.831H287.591C285.718 400.748 285.709 323.383 263.862 314.693Z" fill="#80297D"/>
</g>
<defs>
<clipPath id="clip0_79_1655">
<rect width="450.006" height="450.006" fill="white" transform="translate(-0.00561523)"/>
</clipPath>
</defs>
</svg>
