<svg width="141" height="64" viewBox="0 0 141 64" fill="none" xmlns="http://www.w3.org/2000/svg">
<path d="M49.6109 13.0692L48.2389 13.5844L49.5627 17.1092L53.0875 15.7854L52.5722 14.4134L51.2372 14.9148C51.5444 13.862 51.7003 12.7701 51.7003 11.6521C51.7003 8.53974 50.4882 5.61362 48.2875 3.41281C46.0868 1.212 43.1606 0 40.0482 0C36.9358 0 34.0097 1.21205 31.8089 3.41276C29.6082 5.61357 28.3961 8.53969 28.3961 11.6521C28.3961 14.7645 29.6082 17.6906 31.8089 19.8914C34.0097 22.0922 36.9358 23.3042 40.0482 23.3042C43.1606 23.3042 46.0867 22.0922 48.2875 19.8914L47.2512 18.8551C45.3272 20.7791 42.7691 21.8386 40.0482 21.8386C34.4314 21.8386 29.8617 17.269 29.8617 11.6521C29.8617 6.03525 34.4314 1.46557 40.0482 1.46557C45.6651 1.46557 50.2348 6.03525 50.2348 11.6521C50.2348 12.4539 50.143 13.2402 49.9622 14.0047L49.6109 13.0692Z" fill="#263646"/>
<path d="M40.0482 3.71556C35.672 3.71556 32.1117 7.27585 32.1117 11.6521C32.1117 16.0284 35.672 19.5886 40.0482 19.5886C44.4245 19.5886 47.9848 16.0284 47.9848 11.6521C47.9848 7.27585 44.4245 3.71556 40.0482 3.71556ZM34.2492 8.78298H36.1744C36.0241 9.47907 35.9253 10.201 35.8849 10.9193H33.619C33.705 10.1599 33.9228 9.44 34.2492 8.78298ZM34.2493 14.5212C33.9229 13.8642 33.705 13.1443 33.619 12.3849H35.885C35.9254 13.1032 36.0241 13.8251 36.1745 14.5212H34.2493ZM35.2478 15.9868H36.5822C36.6813 16.2725 36.7894 16.5491 36.9068 16.813C37.0124 17.0502 37.1237 17.2728 37.2399 17.4814C36.4822 17.1148 35.8064 16.6047 35.2478 15.9868ZM36.9068 6.49127C36.7895 6.75511 36.6814 7.03178 36.5822 7.31746H35.2479C35.8065 6.6995 36.4823 6.18938 37.24 5.82287C37.1237 6.03139 37.0124 6.254 36.9068 6.49127ZM39.3154 17.8013C38.939 17.4823 38.5664 16.9375 38.2458 16.2171C38.2123 16.1418 38.1797 16.0647 38.1478 15.9867H39.3154V17.8013ZM39.3154 14.5212H37.68C37.5122 13.8319 37.4004 13.1034 37.3541 12.3849H39.3154V14.5212ZM39.3154 10.9193H37.3541C37.4003 10.2008 37.5123 9.47236 37.68 8.78298H39.3154V10.9193ZM39.3154 7.31737H38.1478C38.1797 7.23929 38.2123 7.16232 38.2458 7.08699C38.5664 6.36656 38.939 5.8218 39.3154 5.50279V7.31737ZM45.8472 8.78298C46.1736 9.44 46.3914 10.1599 46.4774 10.9193H44.2609C44.2193 10.2021 44.1179 9.48018 43.9634 8.78298H45.8472ZM44.8486 7.31742H43.5459C43.444 7.03023 43.333 6.75188 43.2123 6.48616C43.1078 6.25602 42.9981 6.03949 42.8837 5.83637C43.6304 6.20192 44.2968 6.70688 44.8486 7.31742ZM40.781 5.49701C41.1653 5.81587 41.5477 6.36463 41.8779 7.09211C41.9114 7.16584 41.9439 7.24122 41.9757 7.31746H40.781V5.49701ZM41.8779 16.2121C41.5477 16.9396 41.1654 17.4884 40.781 17.8072V15.9868H41.9757C41.9438 16.063 41.9114 16.1384 41.8779 16.2121ZM42.4558 14.5212H40.781V12.3849H42.7916C42.7438 13.1021 42.6286 13.8307 42.4558 14.5212ZM40.781 10.9193V8.78298H42.4558C42.6286 9.47352 42.7438 10.2021 42.7916 10.9193H40.781ZM42.8837 17.4678C42.9981 17.2647 43.1079 17.0481 43.2123 16.818C43.333 16.5523 43.444 16.274 43.5458 15.9867H44.8485C44.2968 16.5973 43.6304 17.1022 42.8837 17.4678ZM43.9634 14.5212C44.1179 13.824 44.2193 13.1021 44.2609 12.3849H46.4775C46.3915 13.1443 46.1736 13.8642 45.8472 14.5212H43.9634Z" fill="#263646"/>
<path d="M74.9805 24.1521L68.0998 15.9546H74.783L80.248 22.4072V24.1521H74.9805ZM56.5772 24.1521V0.481316H75.3755C76.2754 0.481316 77.0875 0.700795 77.8118 1.13975C78.558 1.57871 79.1506 2.1713 79.5895 2.91753C80.0505 3.66376 80.2809 4.47583 80.2809 5.35374V11.4772C80.2809 12.3551 80.0505 13.1672 79.5895 13.9134C79.1506 14.6596 78.558 15.2522 77.8118 15.6912C77.0875 16.1302 76.2754 16.3496 75.3755 16.3496L61.6801 16.3826V24.1521H56.5772ZM61.6801 11.2138H75.1122V5.5842H61.6801V11.2138Z" fill="#263646"/>
<path d="M83.777 24.1521V0.448395H88.8799V9.73235H102.872V0.448395H107.975V24.1521H102.872V14.8681H88.8799V24.1521H83.777Z" fill="#263646"/>
<path d="M12.0665 54.8295C10.5916 54.8295 9.1628 54.7066 7.78008 54.4607C6.39737 54.2149 5.10683 53.8462 3.90848 53.3546C2.74085 52.8322 1.68077 52.2023 0.72823 51.4649C0.42096 51.2498 0.205871 51.0039 0.0829629 50.7274C-0.00921813 50.4201 -0.0245816 50.1436 0.0368724 49.8978C0.129053 49.6212 0.267325 49.3908 0.451687 49.2064C0.666776 49.0221 0.912593 48.9299 1.18914 48.9299C1.46568 48.8992 1.75759 48.9913 2.06486 49.2064C3.4783 50.2511 4.96856 51.0193 6.53564 51.5109C8.13344 52.0026 9.97706 52.2484 12.0665 52.2484C14.9856 52.2484 17.1672 51.6799 18.6114 50.543C20.0863 49.4061 20.8237 47.9159 20.8237 46.0723C20.8237 44.5359 20.286 43.3376 19.2105 42.4772C18.1658 41.6168 16.4297 40.9408 14.0023 40.4492L9.34716 39.4813C6.42809 38.8975 4.26184 37.9142 2.8484 36.5315C1.43495 35.1488 0.72823 33.3052 0.72823 31.0007C0.72823 29.5872 1.00477 28.312 1.55786 27.1751C2.11095 26.0075 2.89449 25.0089 3.90848 24.1793C4.92247 23.3496 6.12082 22.7197 7.50354 22.2895C8.91698 21.8286 10.4687 21.5982 12.1587 21.5982C14.1559 21.5982 15.9842 21.8747 17.6435 22.4278C19.3334 22.9809 20.8698 23.8566 22.2525 25.055C22.5291 25.2701 22.7134 25.5312 22.8056 25.8385C22.8978 26.1151 22.8978 26.3916 22.8056 26.6681C22.7134 26.914 22.5751 27.1137 22.3908 27.2673C22.2064 27.421 21.976 27.5131 21.6994 27.5439C21.4229 27.5439 21.131 27.421 20.8237 27.1751C19.5332 26.1304 18.1812 25.3776 16.7677 24.9167C15.385 24.4251 13.8487 24.1793 12.1587 24.1793C10.438 24.1793 8.93235 24.4558 7.64181 25.0089C6.382 25.562 5.39874 26.3455 4.69202 27.3595C3.9853 28.3735 3.63193 29.5718 3.63193 30.9546C3.63193 32.5524 4.12357 33.8275 5.10683 34.7801C6.0901 35.7326 7.67254 36.424 9.85416 36.8542L14.5554 37.8221C17.6588 38.4673 19.9633 39.4352 21.469 40.7258C22.9746 41.9856 23.7274 43.7216 23.7274 45.934C23.7274 47.2553 23.4509 48.469 22.8978 49.5751C22.3754 50.6506 21.6072 51.5878 20.5933 52.3867C19.5793 53.1856 18.3502 53.8001 16.906 54.2303C15.4926 54.6297 13.8794 54.8295 12.0665 54.8295Z" fill="#263646"/>
<path d="M39.095 54.8295C36.7905 54.8295 34.8086 54.3686 33.1493 53.4468C31.4901 52.5249 30.2149 51.2037 29.3238 49.483C28.4327 47.7622 27.9872 45.7189 27.9872 43.3529C27.9872 41.0177 28.4327 38.9897 29.3238 37.269C30.2149 35.5175 31.444 34.1502 33.0111 33.1669C34.6089 32.1836 36.4371 31.692 38.4958 31.692C40.0014 31.692 41.3227 31.9532 42.4596 32.4756C43.6272 32.9672 44.6105 33.6893 45.4094 34.6418C46.239 35.5636 46.8689 36.7005 47.2991 38.0525C47.7293 39.3738 47.9444 40.8794 47.9444 42.5694C47.9444 42.9996 47.8215 43.3222 47.5757 43.5373C47.3606 43.7524 47.0533 43.8599 46.6538 43.8599H30.0152V41.7858H46.1929L45.4555 42.385C45.4555 40.6029 45.1943 39.0972 44.672 37.8681C44.1496 36.6083 43.3661 35.6404 42.3213 34.9644C41.3073 34.2884 40.0475 33.9505 38.5419 33.9505C36.8519 33.9505 35.4231 34.3499 34.2555 35.1488C33.0879 35.917 32.2121 36.9924 31.6283 38.3751C31.0445 39.7271 30.7526 41.2942 30.7526 43.0764V43.3068C30.7526 46.2566 31.4747 48.5304 32.9189 50.1282C34.363 51.6953 36.391 52.4788 39.0028 52.4788C40.1397 52.4788 41.2305 52.3252 42.2752 52.0179C43.3507 51.7107 44.3954 51.1883 45.4094 50.4509C45.7167 50.2358 46.0086 50.1282 46.2851 50.1282C46.5924 50.1282 46.8382 50.205 47.0226 50.3587C47.2377 50.5123 47.3759 50.712 47.4374 50.9579C47.5296 51.1729 47.5142 51.4188 47.3913 51.6953C47.2991 51.9411 47.0994 52.1716 46.7921 52.3867C45.8089 53.1856 44.6259 53.8001 43.2431 54.2303C41.8604 54.6297 40.4777 54.8295 39.095 54.8295Z" fill="#263646"/>
<path d="M63.4006 63.1258C61.7413 63.1258 60.1281 62.9107 58.5611 62.4805C57.0247 62.081 55.6266 61.4204 54.3668 60.4986C54.121 60.345 53.952 60.1452 53.8598 59.8994C53.7984 59.6536 53.7984 59.4078 53.8598 59.162C53.9213 58.9469 54.0288 58.7472 54.1824 58.5628C54.3668 58.3784 54.5665 58.2709 54.7816 58.2402C55.0274 58.2094 55.2733 58.2555 55.5191 58.3784C56.8711 59.2695 58.1616 59.8841 59.3907 60.2221C60.6505 60.5908 61.9564 60.7751 63.3084 60.7751C65.5515 60.7751 67.2568 60.1452 68.4244 58.8854C69.592 57.6564 70.1759 55.8895 70.1759 53.585V47.8698H70.6368C70.1759 49.7749 69.1926 51.2651 67.687 52.3406C66.1814 53.416 64.3992 53.9537 62.3405 53.9537C60.2818 53.9537 58.4996 53.4928 56.994 52.571C55.4883 51.6185 54.3207 50.3126 53.4911 48.6533C52.6922 46.9633 52.2927 45.0122 52.2927 42.7998C52.2927 41.1406 52.5232 39.635 52.9841 38.283C53.445 36.931 54.1056 35.7633 54.966 34.7801C55.8571 33.7968 56.9172 33.044 58.1462 32.5216C59.3753 31.9686 60.7734 31.692 62.3405 31.692C64.3992 31.692 66.1814 32.2451 67.687 33.3513C69.1926 34.4267 70.1605 35.8863 70.5907 37.7299L70.1298 38.0064V33.2591C70.1298 32.7675 70.2527 32.3987 70.4985 32.1529C70.7443 31.9071 71.0823 31.7842 71.5125 31.7842C71.9734 31.7842 72.3114 31.9071 72.5265 32.1529C72.7723 32.3987 72.8952 32.7675 72.8952 33.2591V53.1702C72.8952 56.458 72.0963 58.9315 70.4985 60.5908C68.9007 62.2808 66.5347 63.1258 63.4006 63.1258ZM62.6631 51.557C64.1995 51.557 65.5207 51.2037 66.6269 50.497C67.7638 49.7595 68.6395 48.7455 69.2541 47.455C69.8686 46.1337 70.1759 44.582 70.1759 42.7998C70.1759 40.1266 69.4999 38.0064 68.1479 36.4393C66.7959 34.8723 64.9676 34.0887 62.6631 34.0887C61.1268 34.0887 59.7901 34.4421 58.6532 35.1488C57.5163 35.8555 56.6406 36.8695 56.0261 38.1908C55.4423 39.4813 55.1504 41.0177 55.1504 42.7998C55.1504 45.4731 55.8263 47.6086 57.1783 49.2064C58.5303 50.7735 60.3586 51.557 62.6631 51.557Z" fill="#263646"/>
<path d="M88.203 54.8295C86.4209 54.8295 84.9306 54.5068 83.7322 53.8616C82.5646 53.2163 81.6889 52.2484 81.1051 50.9579C80.5213 49.6673 80.2294 48.0695 80.2294 46.1644V33.2591C80.2294 32.7675 80.3523 32.3987 80.5981 32.1529C80.8439 31.9071 81.1973 31.7842 81.6582 31.7842C82.0883 31.7842 82.4263 31.9071 82.6722 32.1529C82.918 32.3987 83.0409 32.7675 83.0409 33.2591V46.0262C83.0409 48.1771 83.4864 49.7902 84.3775 50.8657C85.2686 51.9104 86.6667 52.4328 88.5717 52.4328C90.6612 52.4328 92.3512 51.7414 93.6417 50.3587C94.9322 48.9452 95.5775 47.1016 95.5775 44.8278V33.2591C95.5775 32.7675 95.7004 32.3987 95.9462 32.1529C96.1921 31.9071 96.5454 31.7842 97.0063 31.7842C97.4365 31.7842 97.7745 31.9071 98.0203 32.1529C98.2661 32.3987 98.389 32.7675 98.389 33.2591V53.3085C98.389 54.261 97.9435 54.7373 97.0524 54.7373C96.6222 54.7373 96.2842 54.6144 96.0384 54.3686C95.7926 54.1227 95.6697 53.7694 95.6697 53.3085V48.7455L96.2228 49.0681C95.639 50.9425 94.625 52.3713 93.1808 53.3546C91.7366 54.3378 90.0774 54.8295 88.203 54.8295Z" fill="#263646"/>
<path d="M107.226 54.7373C106.765 54.7373 106.412 54.6144 106.166 54.3686C105.92 54.1227 105.797 53.7694 105.797 53.3085V33.2591C105.797 32.7675 105.92 32.3987 106.166 32.1529C106.412 31.9071 106.765 31.7842 107.226 31.7842C107.656 31.7842 107.979 31.9071 108.194 32.1529C108.44 32.3987 108.563 32.7675 108.563 33.2591V37.3612H108.102C108.655 35.5483 109.638 34.1502 111.052 33.1669C112.496 32.1836 114.217 31.6767 116.214 31.6459C116.583 31.6152 116.89 31.692 117.136 31.8764C117.381 32.0607 117.504 32.3526 117.504 32.7521C117.535 33.1823 117.443 33.5203 117.228 33.7661C117.013 33.9812 116.659 34.1194 116.168 34.1809L115.522 34.227C113.341 34.4421 111.651 35.1642 110.453 36.3932C109.254 37.6223 108.655 39.2816 108.655 41.371V53.3085C108.655 53.7694 108.532 54.1227 108.286 54.3686C108.071 54.6144 107.718 54.7373 107.226 54.7373Z" fill="#263646"/>
<path d="M130.176 54.8295C128.087 54.8295 126.274 54.3532 124.738 53.4007C123.201 52.4481 122.003 51.1115 121.143 49.3908C120.313 47.6701 119.898 45.6267 119.898 43.2607C119.898 41.5093 120.129 39.9269 120.59 38.5134C121.081 37.1 121.773 35.8863 122.664 34.8723C123.585 33.8275 124.676 33.044 125.936 32.5216C127.227 31.9686 128.64 31.692 130.176 31.692C132.297 31.692 134.125 32.1683 135.661 33.1208C137.197 34.0734 138.38 35.4254 139.21 37.1768C140.07 38.8975 140.501 40.9255 140.501 43.2607C140.501 45.0429 140.255 46.6407 139.763 48.0542C139.302 49.4676 138.611 50.6813 137.689 51.6953C136.798 52.7093 135.723 53.4928 134.463 54.0459C133.203 54.5683 131.774 54.8295 130.176 54.8295ZM130.176 52.4788C131.713 52.4788 133.034 52.1255 134.14 51.4188C135.277 50.6813 136.137 49.6212 136.721 48.2385C137.336 46.8558 137.643 45.1965 137.643 43.2607C137.643 40.3417 136.967 38.0832 135.615 36.4854C134.294 34.8876 132.481 34.0887 130.176 34.0887C128.671 34.0887 127.349 34.4574 126.213 35.1949C125.106 35.9016 124.246 36.9463 123.632 38.3291C123.048 39.681 122.756 41.3249 122.756 43.2607C122.756 46.2105 123.432 48.4843 124.784 50.0821C126.136 51.6799 127.933 52.4788 130.176 52.4788Z" fill="#263646"/>
</svg>
