<svg width="141" height="64" viewBox="0 0 141 64" fill="none" xmlns="http://www.w3.org/2000/svg">
<path d="M49.6109 13.1949L48.2389 13.7102L49.5627 17.235L53.0875 15.9112L52.5722 14.5392L51.2372 15.0406C51.5444 13.9877 51.7003 12.8958 51.7003 11.7778C51.7003 8.66547 50.4882 5.73935 48.2875 3.53854C46.0868 1.33773 43.1606 0.125732 40.0482 0.125732C36.9358 0.125732 34.0097 1.33778 31.8089 3.53849C29.6082 5.7393 28.3961 8.66542 28.3961 11.7778C28.3961 14.8902 29.6082 17.8163 31.8089 20.0171C34.0097 22.2179 36.9358 23.4299 40.0482 23.4299C43.1606 23.4299 46.0867 22.2179 48.2875 20.0171L47.2512 18.9808C45.3272 20.9048 42.7691 21.9644 40.0482 21.9644C34.4314 21.9644 29.8617 17.3947 29.8617 11.7778C29.8617 6.16098 34.4314 1.5913 40.0482 1.5913C45.6651 1.5913 50.2348 6.16098 50.2348 11.7778C50.2348 12.5797 50.143 13.3659 49.9622 14.1304L49.6109 13.1949Z" fill="white"/>
<path d="M40.0482 3.8413C35.672 3.8413 32.1117 7.40158 32.1117 11.7778C32.1117 16.1541 35.672 19.7144 40.0482 19.7144C44.4245 19.7144 47.9848 16.1541 47.9848 11.7778C47.9848 7.40158 44.4245 3.8413 40.0482 3.8413ZM34.2492 8.90872H36.1744C36.0241 9.6048 35.9253 10.3267 35.8849 11.045H33.619C33.705 10.2856 33.9228 9.56574 34.2492 8.90872ZM34.2493 14.6469C33.9229 13.9899 33.705 13.2701 33.619 12.5106H35.885C35.9254 13.2289 36.0241 13.9508 36.1745 14.6469H34.2493ZM35.2478 16.1125H36.5822C36.6813 16.3982 36.7894 16.6749 36.9068 16.9387C37.0124 17.1759 37.1237 17.3985 37.2399 17.6071C36.4822 17.2406 35.8064 16.7305 35.2478 16.1125ZM36.9068 6.617C36.7895 6.88084 36.6814 7.15751 36.5822 7.4432H35.2479C35.8065 6.82524 36.4823 6.31511 37.24 5.9486C37.1237 6.15712 37.0124 6.37973 36.9068 6.617ZM39.3154 17.927C38.939 17.6081 38.5664 17.0633 38.2458 16.3428C38.2123 16.2675 38.1797 16.1904 38.1478 16.1125H39.3154V17.927ZM39.3154 14.6469H37.68C37.5122 13.9576 37.4004 13.2291 37.3541 12.5106H39.3154V14.6469ZM39.3154 11.045H37.3541C37.4003 10.3265 37.5123 9.5981 37.68 8.90872H39.3154V11.045ZM39.3154 7.4431H38.1478C38.1797 7.36502 38.2123 7.28805 38.2458 7.21273C38.5664 6.49229 38.939 5.94754 39.3154 5.62853V7.4431ZM45.8472 8.90872C46.1736 9.56574 46.3914 10.2856 46.4774 11.045H44.2609C44.2193 10.3278 44.1179 9.60591 43.9634 8.90872H45.8472ZM44.8486 7.44315H43.5459C43.444 7.15597 43.333 6.87761 43.2123 6.61189C43.1078 6.38176 42.9981 6.16523 42.8837 5.9621C43.6304 6.32765 44.2968 6.83262 44.8486 7.44315ZM40.781 5.62274C41.1653 5.9416 41.5477 6.49036 41.8779 7.21784C41.9114 7.29158 41.9439 7.36695 41.9757 7.4432H40.781V5.62274ZM41.8779 16.3378C41.5477 17.0653 41.1654 17.6141 40.781 17.9329V16.1125H41.9757C41.9438 16.1887 41.9114 16.2641 41.8779 16.3378ZM42.4558 14.6469H40.781V12.5106H42.7916C42.7438 13.2278 42.6286 13.9564 42.4558 14.6469ZM40.781 11.045V8.90872H42.4558C42.6286 9.59925 42.7438 10.3278 42.7916 11.045H40.781ZM42.8837 17.5935C42.9981 17.3904 43.1079 17.1739 43.2123 16.9437C43.333 16.678 43.444 16.3997 43.5458 16.1125H44.8485C44.2968 16.723 43.6304 17.228 42.8837 17.5935ZM43.9634 14.6469C44.1179 13.9498 44.2193 13.2278 44.2609 12.5106H46.4775C46.3915 13.27 46.1736 13.9899 45.8472 14.6469H43.9634Z" fill="white"/>
<path d="M74.9805 24.2778L68.0998 16.0803H74.783L80.248 22.533V24.2778H74.9805ZM56.5772 24.2778V0.607049H75.3755C76.2754 0.607049 77.0875 0.826527 77.8118 1.26548C78.558 1.70444 79.1506 2.29704 79.5895 3.04326C80.0505 3.78949 80.2809 4.60156 80.2809 5.47948V11.6029C80.2809 12.4808 80.0505 13.2929 79.5895 14.0391C79.1506 14.7854 78.558 15.378 77.8118 15.8169C77.0875 16.2559 76.2754 16.4754 75.3755 16.4754L61.6801 16.5083V24.2778H56.5772ZM61.6801 11.3396H75.1122V5.70993H61.6801V11.3396Z" fill="white"/>
<path d="M83.777 24.2778V0.574127H88.8799V9.85808H102.872V0.574127H107.975V24.2778H102.872V14.9939H88.8799V24.2778H83.777Z" fill="white"/>
<path d="M12.0665 54.9552C10.5916 54.9552 9.1628 54.8323 7.78008 54.5865C6.39737 54.3407 5.10683 53.9719 3.90848 53.4803C2.74085 52.9579 1.68077 52.328 0.72823 51.5906C0.42096 51.3755 0.205871 51.1297 0.0829629 50.8531C-0.00921813 50.5459 -0.0245816 50.2693 0.0368724 50.0235C0.129053 49.747 0.267325 49.5165 0.451687 49.3322C0.666776 49.1478 0.912593 49.0556 1.18914 49.0556C1.46568 49.0249 1.75759 49.1171 2.06486 49.3322C3.4783 50.3769 4.96856 51.1451 6.53564 51.6367C8.13344 52.1283 9.97706 52.3741 12.0665 52.3741C14.9856 52.3741 17.1672 51.8057 18.6114 50.6688C20.0863 49.5319 20.8237 48.0416 20.8237 46.198C20.8237 44.6616 20.286 43.4633 19.2105 42.6029C18.1658 41.7426 16.4297 41.0666 14.0023 40.575L9.34716 39.607C6.42809 39.0232 4.26184 38.04 2.8484 36.6573C1.43495 35.2745 0.72823 33.4309 0.72823 31.1264C0.72823 29.7129 1.00477 28.4378 1.55786 27.3009C2.11095 26.1332 2.89449 25.1346 3.90848 24.305C4.92247 23.4754 6.12082 22.8455 7.50354 22.4153C8.91698 21.9544 10.4687 21.7239 12.1587 21.7239C14.1559 21.7239 15.9842 22.0005 17.6435 22.5535C19.3334 23.1066 20.8698 23.9824 22.2525 25.1807C22.5291 25.3958 22.7134 25.657 22.8056 25.9642C22.8978 26.2408 22.8978 26.5173 22.8056 26.7939C22.7134 27.0397 22.5751 27.2394 22.3908 27.3931C22.2064 27.5467 21.976 27.6389 21.6994 27.6696C21.4229 27.6696 21.131 27.5467 20.8237 27.3009C19.5332 26.2562 18.1812 25.5033 16.7677 25.0424C15.385 24.5508 13.8487 24.305 12.1587 24.305C10.438 24.305 8.93235 24.5815 7.64181 25.1346C6.382 25.6877 5.39874 26.4712 4.69202 27.4852C3.9853 28.4992 3.63193 29.6976 3.63193 31.0803C3.63193 32.6781 4.12357 33.9533 5.10683 34.9058C6.0901 35.8584 7.67254 36.5497 9.85416 36.9799L14.5554 37.9478C17.6588 38.5931 19.9633 39.561 21.469 40.8515C22.9746 42.1113 23.7274 43.8474 23.7274 46.0597C23.7274 47.381 23.4509 48.5947 22.8978 49.7009C22.3754 50.7763 21.6072 51.7135 20.5933 52.5124C19.5793 53.3113 18.3502 53.9258 16.906 54.356C15.4926 54.7555 13.8794 54.9552 12.0665 54.9552Z" fill="white"/>
<path d="M39.095 54.9552C36.7905 54.9552 34.8086 54.4943 33.1493 53.5725C31.4901 52.6507 30.2149 51.3294 29.3238 49.6087C28.4327 47.888 27.9872 45.8446 27.9872 43.4787C27.9872 41.1434 28.4327 39.1154 29.3238 37.3947C30.2149 35.6433 31.444 34.2759 33.0111 33.2926C34.6089 32.3094 36.4371 31.8177 38.4958 31.8177C40.0014 31.8177 41.3227 32.0789 42.4596 32.6013C43.6272 33.0929 44.6105 33.815 45.4094 34.7675C46.239 35.6894 46.8689 36.8263 47.2991 38.1782C47.7293 39.4995 47.9444 41.0051 47.9444 42.6951C47.9444 43.1253 47.8215 43.4479 47.5757 43.663C47.3606 43.8781 47.0533 43.9856 46.6538 43.9856H30.0152V41.9116H46.1929L45.4555 42.5108C45.4555 40.7286 45.1943 39.223 44.672 37.9939C44.1496 36.7341 43.3661 35.7662 42.3213 35.0902C41.3073 34.4142 40.0475 34.0762 38.5419 34.0762C36.8519 34.0762 35.4231 34.4756 34.2555 35.2745C33.0879 36.0427 32.2121 37.1182 31.6283 38.5009C31.0445 39.8529 30.7526 41.4199 30.7526 43.2021V43.4326C30.7526 46.3824 31.4747 48.6562 32.9189 50.254C34.363 51.821 36.391 52.6046 39.0028 52.6046C40.1397 52.6046 41.2305 52.4509 42.2752 52.1437C43.3507 51.8364 44.3954 51.314 45.4094 50.5766C45.7167 50.3615 46.0086 50.254 46.2851 50.254C46.5924 50.254 46.8382 50.3308 47.0226 50.4844C47.2377 50.6381 47.3759 50.8378 47.4374 51.0836C47.5296 51.2987 47.5142 51.5445 47.3913 51.821C47.2991 52.0669 47.0994 52.2973 46.7921 52.5124C45.8089 53.3113 44.6259 53.9258 43.2431 54.356C41.8604 54.7555 40.4777 54.9552 39.095 54.9552Z" fill="white"/>
<path d="M63.4006 63.2515C61.7413 63.2515 60.1281 63.0364 58.5611 62.6062C57.0247 62.2068 55.6266 61.5461 54.3668 60.6243C54.121 60.4707 53.952 60.271 53.8598 60.0252C53.7984 59.7793 53.7984 59.5335 53.8598 59.2877C53.9213 59.0726 54.0288 58.8729 54.1824 58.6885C54.3668 58.5042 54.5665 58.3966 54.7816 58.3659C55.0274 58.3352 55.2733 58.3813 55.5191 58.5042C56.8711 59.3953 58.1616 60.0098 59.3907 60.3478C60.6505 60.7165 61.9564 60.9009 63.3084 60.9009C65.5515 60.9009 67.2568 60.271 68.4244 59.0112C69.592 57.7821 70.1759 56.0153 70.1759 53.7108V47.9955H70.6368C70.1759 49.9006 69.1926 51.3909 67.687 52.4663C66.1814 53.5418 64.3992 54.0795 62.3405 54.0795C60.2818 54.0795 58.4996 53.6186 56.994 52.6968C55.4883 51.7442 54.3207 50.4383 53.4911 48.7791C52.6922 47.0891 52.2927 45.1379 52.2927 42.9256C52.2927 41.2663 52.5232 39.7607 52.9841 38.4087C53.445 37.0567 54.1056 35.8891 54.966 34.9058C55.8571 33.9226 56.9172 33.1697 58.1462 32.6474C59.3753 32.0943 60.7734 31.8177 62.3405 31.8177C64.3992 31.8177 66.1814 32.3708 67.687 33.477C69.1926 34.5525 70.1605 36.012 70.5907 37.8556L70.1298 38.1322V33.3848C70.1298 32.8932 70.2527 32.5245 70.4985 32.2787C70.7443 32.0328 71.0823 31.9099 71.5125 31.9099C71.9734 31.9099 72.3114 32.0328 72.5265 32.2787C72.7723 32.5245 72.8952 32.8932 72.8952 33.3848V53.2959C72.8952 56.5837 72.0963 59.0573 70.4985 60.7165C68.9007 62.4065 66.5347 63.2515 63.4006 63.2515ZM62.6631 51.6828C64.1995 51.6828 65.5207 51.3294 66.6269 50.6227C67.7638 49.8852 68.6395 48.8712 69.2541 47.5807C69.8686 46.2594 70.1759 44.7077 70.1759 42.9256C70.1759 40.2523 69.4999 38.1321 68.1479 36.5651C66.7959 34.998 64.9676 34.2145 62.6631 34.2145C61.1268 34.2145 59.7901 34.5678 58.6532 35.2745C57.5163 35.9813 56.6406 36.9953 56.0261 38.3165C55.4423 39.607 55.1504 41.1434 55.1504 42.9256C55.1504 45.5988 55.8263 47.7343 57.1783 49.3322C58.5303 50.8992 60.3586 51.6828 62.6631 51.6828Z" fill="white"/>
<path d="M88.203 54.9552C86.4209 54.9552 84.9306 54.6326 83.7322 53.9873C82.5646 53.342 81.6889 52.3741 81.1051 51.0836C80.5213 49.7931 80.2294 48.1953 80.2294 46.2902V33.3848C80.2294 32.8932 80.3523 32.5245 80.5981 32.2787C80.8439 32.0328 81.1973 31.9099 81.6582 31.9099C82.0883 31.9099 82.4263 32.0328 82.6722 32.2787C82.918 32.5245 83.0409 32.8932 83.0409 33.3848V46.1519C83.0409 48.3028 83.4864 49.916 84.3775 50.9914C85.2686 52.0361 86.6667 52.5585 88.5717 52.5585C90.6612 52.5585 92.3512 51.8671 93.6417 50.4844C94.9322 49.071 95.5775 47.2274 95.5775 44.9536V33.3848C95.5775 32.8932 95.7004 32.5245 95.9462 32.2787C96.1921 32.0328 96.5454 31.9099 97.0063 31.9099C97.4365 31.9099 97.7745 32.0328 98.0203 32.2787C98.2661 32.5245 98.389 32.8932 98.389 33.3848V53.4342C98.389 54.3867 97.9435 54.863 97.0524 54.863C96.6222 54.863 96.2842 54.7401 96.0384 54.4943C95.7926 54.2485 95.6697 53.8951 95.6697 53.4342V48.8712L96.2228 49.1939C95.639 51.0682 94.625 52.497 93.1808 53.4803C91.7366 54.4636 90.0774 54.9552 88.203 54.9552Z" fill="white"/>
<path d="M107.226 54.863C106.765 54.863 106.412 54.7401 106.166 54.4943C105.92 54.2485 105.797 53.8951 105.797 53.4342V33.3848C105.797 32.8932 105.92 32.5245 106.166 32.2787C106.412 32.0328 106.765 31.9099 107.226 31.9099C107.656 31.9099 107.979 32.0328 108.194 32.2787C108.44 32.5245 108.563 32.8932 108.563 33.3848V37.4869H108.102C108.655 35.674 109.638 34.2759 111.052 33.2926C112.496 32.3094 114.217 31.8024 116.214 31.7717C116.583 31.7409 116.89 31.8177 117.136 32.0021C117.381 32.1865 117.504 32.4784 117.504 32.8778C117.535 33.308 117.443 33.646 117.228 33.8918C117.013 34.1069 116.659 34.2452 116.168 34.3066L115.522 34.3527C113.341 34.5678 111.651 35.2899 110.453 36.519C109.254 37.7481 108.655 39.4073 108.655 41.4968V53.4342C108.655 53.8951 108.532 54.2485 108.286 54.4943C108.071 54.7401 107.718 54.863 107.226 54.863Z" fill="white"/>
<path d="M130.176 54.9552C128.087 54.9552 126.274 54.4789 124.738 53.5264C123.201 52.5739 122.003 51.2372 121.143 49.5165C120.313 47.7958 119.898 45.7525 119.898 43.3865C119.898 41.635 120.129 40.0526 120.59 38.6391C121.081 37.2257 121.773 36.012 122.664 34.998C123.585 33.9533 124.676 33.1697 125.936 32.6474C127.227 32.0943 128.64 31.8177 130.176 31.8177C132.297 31.8177 134.125 32.294 135.661 33.2466C137.197 34.1991 138.38 35.5511 139.21 37.3025C140.07 39.0232 140.501 41.0512 140.501 43.3865C140.501 45.1686 140.255 46.7664 139.763 48.1799C139.302 49.5933 138.611 50.807 137.689 51.821C136.798 52.835 135.723 53.6186 134.463 54.1717C133.203 54.694 131.774 54.9552 130.176 54.9552ZM130.176 52.6046C131.713 52.6046 133.034 52.2512 134.14 51.5445C135.277 50.807 136.137 49.747 136.721 48.3643C137.336 46.9815 137.643 45.3223 137.643 43.3865C137.643 40.4674 136.967 38.209 135.615 36.6112C134.294 35.0134 132.481 34.2145 130.176 34.2145C128.671 34.2145 127.349 34.5832 126.213 35.3206C125.106 36.0274 124.246 37.0721 123.632 38.4548C123.048 39.8068 122.756 41.4507 122.756 43.3865C122.756 46.3363 123.432 48.6101 124.784 50.2079C126.136 51.8057 127.933 52.6046 130.176 52.6046Z" fill="white"/>
</svg>
