<svg width="141" height="64" viewBox="0 0 141 64" fill="none" xmlns="http://www.w3.org/2000/svg">
<path d="M49.6109 13.3206L48.2389 13.8359L49.5627 17.3607L53.0875 16.0369L52.5722 14.6649L51.2372 15.1663C51.5444 14.1134 51.7003 13.0216 51.7003 11.9036C51.7003 8.7912 50.4882 5.86508 48.2875 3.66427C46.0868 1.46346 43.1606 0.251465 40.0482 0.251465C36.9358 0.251465 34.0097 1.46351 31.8089 3.66423C29.6082 5.86504 28.3961 8.79115 28.3961 11.9036C28.3961 15.016 29.6082 17.9421 31.8089 20.1429C34.0097 22.3437 36.9358 23.5557 40.0482 23.5557C43.1606 23.5557 46.0867 22.3436 48.2875 20.1429L47.2512 19.1065C45.3272 21.0305 42.7691 22.0901 40.0482 22.0901C34.4314 22.0901 29.8617 17.5204 29.8617 11.9036C29.8617 6.28672 34.4314 1.71703 40.0482 1.71703C45.6651 1.71703 50.2348 6.28672 50.2348 11.9036C50.2348 12.7054 50.143 13.4917 49.9622 14.2561L49.6109 13.3206Z" fill="black"/>
<path d="M40.0482 3.96703C35.672 3.96703 32.1117 7.52731 32.1117 11.9036C32.1117 16.2798 35.672 19.8401 40.0482 19.8401C44.4245 19.8401 47.9848 16.2798 47.9848 11.9036C47.9848 7.52731 44.4245 3.96703 40.0482 3.96703ZM34.2492 9.03445H36.1744C36.0241 9.73053 35.9253 10.4524 35.8849 11.1708H33.619C33.705 10.4114 33.9228 9.69147 34.2492 9.03445ZM34.2493 14.7727C33.9229 14.1157 33.705 13.3958 33.619 12.6363H35.885C35.9254 13.3547 36.0241 14.0765 36.1745 14.7727H34.2493ZM35.2478 16.2382H36.5822C36.6813 16.5239 36.7894 16.8006 36.9068 17.0644C37.0124 17.3017 37.1237 17.5243 37.2399 17.7328C36.4822 17.3663 35.8064 16.8562 35.2478 16.2382ZM36.9068 6.74273C36.7895 7.00657 36.6814 7.28324 36.5822 7.56893H35.2479C35.8065 6.95097 36.4823 6.44084 37.24 6.07433C37.1237 6.28286 37.0124 6.50546 36.9068 6.74273ZM39.3154 18.0528C38.939 17.7338 38.5664 17.189 38.2458 16.4686C38.2123 16.3932 38.1797 16.3162 38.1478 16.2382H39.3154V18.0528ZM39.3154 14.7727H37.68C37.5122 14.0833 37.4004 13.3549 37.3541 12.6363H39.3154V14.7727ZM39.3154 11.1708H37.3541C37.4003 10.4523 37.5123 9.72383 37.68 9.03445H39.3154V11.1708ZM39.3154 7.56883H38.1478C38.1797 7.49076 38.2123 7.41379 38.2458 7.33846C38.5664 6.61802 38.939 6.07327 39.3154 5.75426V7.56883ZM45.8472 9.03445C46.1736 9.69147 46.3914 10.4113 46.4774 11.1708H44.2609C44.2193 10.4535 44.1179 9.73164 43.9634 9.03445H45.8472ZM44.8486 7.56888H43.5459C43.444 7.2817 43.333 7.00334 43.2123 6.73762C43.1078 6.50749 42.9981 6.29096 42.8837 6.08783C43.6304 6.45338 44.2968 6.95835 44.8486 7.56888ZM40.781 5.74847C41.1653 6.06734 41.5477 6.61609 41.8779 7.34357C41.9114 7.41731 41.9439 7.49268 41.9757 7.56893H40.781V5.74847ZM41.8779 16.4636C41.5477 17.191 41.1654 17.7398 40.781 18.0587V16.2382H41.9757C41.9438 16.3144 41.9114 16.3898 41.8779 16.4636ZM42.4558 14.7727H40.781V12.6363H42.7916C42.7438 13.3536 42.6286 14.0821 42.4558 14.7727ZM40.781 11.1708V9.03445H42.4558C42.6286 9.72499 42.7438 10.4536 42.7916 11.1708H40.781ZM42.8837 17.7192C42.9981 17.5161 43.1079 17.2996 43.2123 17.0695C43.333 16.8037 43.444 16.5254 43.5458 16.2382H44.8485C44.2968 16.8487 43.6304 17.3537 42.8837 17.7192ZM43.9634 14.7727C44.1179 14.0755 44.2193 13.3536 44.2609 12.6363H46.4775C46.3915 13.3958 46.1736 14.1157 45.8472 14.7727H43.9634Z" fill="black"/>
<path d="M74.9805 24.4036L68.0998 16.206H74.783L80.248 22.6587V24.4036H74.9805ZM56.5772 24.4036V0.732781H75.3755C76.2754 0.732781 77.0875 0.95226 77.8118 1.39122C78.558 1.83018 79.1506 2.42277 79.5895 3.169C80.0505 3.91522 80.2809 4.7273 80.2809 5.60521V11.7287C80.2809 12.6066 80.0505 13.4187 79.5895 14.1649C79.1506 14.9111 78.558 15.5037 77.8118 15.9427C77.0875 16.3816 76.2754 16.6011 75.3755 16.6011L61.6801 16.634V24.4036H56.5772ZM61.6801 11.4653H75.1122V5.83566H61.6801V11.4653Z" fill="black"/>
<path d="M83.777 24.4036V0.69986H88.8799V9.98381H102.872V0.69986H107.975V24.4036H102.872V15.1196H88.8799V24.4036H83.777Z" fill="black"/>
<path d="M12.0665 55.0809C10.5916 55.0809 9.1628 54.958 7.78008 54.7122C6.39737 54.4664 5.10683 54.0977 3.90848 53.606C2.74085 53.0837 1.68077 52.4538 0.72823 51.7163C0.42096 51.5012 0.205871 51.2554 0.0829629 50.9789C-0.00921813 50.6716 -0.0245816 50.3951 0.0368724 50.1492C0.129053 49.8727 0.267325 49.6422 0.451687 49.4579C0.666776 49.2735 0.912593 49.1813 1.18914 49.1813C1.46568 49.1506 1.75759 49.2428 2.06486 49.4579C3.4783 50.5026 4.96856 51.2708 6.53564 51.7624C8.13344 52.254 9.97706 52.4999 12.0665 52.4999C14.9856 52.4999 17.1672 51.9314 18.6114 50.7945C20.0863 49.6576 20.8237 48.1673 20.8237 46.3237C20.8237 44.7874 20.286 43.589 19.2105 42.7287C18.1658 41.8683 16.4297 41.1923 14.0023 40.7007L9.34716 39.7328C6.42809 39.149 4.26184 38.1657 2.8484 36.783C1.43495 35.4003 0.72823 33.5566 0.72823 31.2521C0.72823 29.8387 1.00477 28.5635 1.55786 27.4266C2.11095 26.259 2.89449 25.2604 3.90848 24.4307C4.92247 23.6011 6.12082 22.9712 7.50354 22.541C8.91698 22.0801 10.4687 21.8497 12.1587 21.8497C14.1559 21.8497 15.9842 22.1262 17.6435 22.6793C19.3334 23.2324 20.8698 24.1081 22.2525 25.3064C22.5291 25.5215 22.7134 25.7827 22.8056 26.09C22.8978 26.3665 22.8978 26.6431 22.8056 26.9196C22.7134 27.1654 22.5751 27.3652 22.3908 27.5188C22.2064 27.6724 21.976 27.7646 21.6994 27.7953C21.4229 27.7953 21.131 27.6724 20.8237 27.4266C19.5332 26.3819 18.1812 25.6291 16.7677 25.1682C15.385 24.6765 13.8487 24.4307 12.1587 24.4307C10.438 24.4307 8.93235 24.7073 7.64181 25.2604C6.382 25.8134 5.39874 26.597 4.69202 27.611C3.9853 28.625 3.63193 29.8233 3.63193 31.206C3.63193 32.8038 4.12357 34.079 5.10683 35.0315C6.0901 35.9841 7.67254 36.6754 9.85416 37.1056L14.5554 38.0735C17.6588 38.7188 19.9633 39.6867 21.469 40.9772C22.9746 42.237 23.7274 43.9731 23.7274 46.1855C23.7274 47.5067 23.4509 48.7204 22.8978 49.8266C22.3754 50.9021 21.6072 51.8392 20.5933 52.6381C19.5793 53.437 18.3502 54.0516 16.906 54.4818C15.4926 54.8812 13.8794 55.0809 12.0665 55.0809Z" fill="black"/>
<path d="M39.095 55.0809C36.7905 55.0809 34.8086 54.62 33.1493 53.6982C31.4901 52.7764 30.2149 51.4551 29.3238 49.7344C28.4327 48.0137 27.9872 45.9704 27.9872 43.6044C27.9872 41.2691 28.4327 39.2411 29.3238 37.5204C30.2149 35.769 31.444 34.4016 33.0111 33.4184C34.6089 32.4351 36.4371 31.9435 38.4958 31.9435C40.0014 31.9435 41.3227 32.2047 42.4596 32.727C43.6272 33.2187 44.6105 33.9407 45.4094 34.8933C46.239 35.8151 46.8689 36.952 47.2991 38.304C47.7293 39.6252 47.9444 41.1309 47.9444 42.8208C47.9444 43.251 47.8215 43.5737 47.5757 43.7887C47.3606 44.0038 47.0533 44.1114 46.6538 44.1114H30.0152V42.0373H46.1929L45.4555 42.6365C45.4555 40.8543 45.1943 39.3487 44.672 38.1196C44.1496 36.8598 43.3661 35.8919 42.3213 35.2159C41.3073 34.5399 40.0475 34.2019 38.5419 34.2019C36.8519 34.2019 35.4231 34.6014 34.2555 35.4003C33.0879 36.1684 32.2121 37.2439 31.6283 38.6266C31.0445 39.9786 30.7526 41.5457 30.7526 43.3278V43.5583C30.7526 46.5081 31.4747 48.7819 32.9189 50.3797C34.363 51.9468 36.391 52.7303 39.0028 52.7303C40.1397 52.7303 41.2305 52.5767 42.2752 52.2694C43.3507 51.9621 44.3954 51.4398 45.4094 50.7023C45.7167 50.4872 46.0086 50.3797 46.2851 50.3797C46.5924 50.3797 46.8382 50.4565 47.0226 50.6101C47.2377 50.7638 47.3759 50.9635 47.4374 51.2093C47.5296 51.4244 47.5142 51.6702 47.3913 51.9468C47.2991 52.1926 47.0994 52.423 46.7921 52.6381C45.8089 53.437 44.6259 54.0516 43.2431 54.4818C41.8604 54.8812 40.4777 55.0809 39.095 55.0809Z" fill="black"/>
<path d="M63.4006 63.3772C61.7413 63.3772 60.1281 63.1621 58.5611 62.732C57.0247 62.3325 55.6266 61.6719 54.3668 60.7501C54.121 60.5964 53.952 60.3967 53.8598 60.1509C53.7984 59.9051 53.7984 59.6593 53.8598 59.4134C53.9213 59.1984 54.0288 58.9986 54.1824 58.8143C54.3668 58.6299 54.5665 58.5224 54.7816 58.4916C55.0274 58.4609 55.2733 58.507 55.5191 58.6299C56.8711 59.521 58.1616 60.1355 59.3907 60.4735C60.6505 60.8422 61.9564 61.0266 63.3084 61.0266C65.5515 61.0266 67.2568 60.3967 68.4244 59.1369C69.592 57.9078 70.1759 56.141 70.1759 53.8365V48.1213H70.6368C70.1759 50.0263 69.1926 51.5166 67.687 52.592C66.1814 53.6675 64.3992 54.2052 62.3405 54.2052C60.2818 54.2052 58.4996 53.7443 56.994 52.8225C55.4883 51.87 54.3207 50.5641 53.4911 48.9048C52.6922 47.2148 52.2927 45.2636 52.2927 43.0513C52.2927 41.392 52.5232 39.8864 52.9841 38.5344C53.445 37.1824 54.1056 36.0148 54.966 35.0315C55.8571 34.0483 56.9172 33.2955 58.1462 32.7731C59.3753 32.22 60.7734 31.9435 62.3405 31.9435C64.3992 31.9435 66.1814 32.4966 67.687 33.6027C69.1926 34.6782 70.1605 36.1377 70.5907 37.9813L70.1298 38.2579V33.5106C70.1298 33.0189 70.2527 32.6502 70.4985 32.4044C70.7443 32.1586 71.0823 32.0357 71.5125 32.0357C71.9734 32.0357 72.3114 32.1586 72.5265 32.4044C72.7723 32.6502 72.8952 33.0189 72.8952 33.5106V53.4217C72.8952 56.7095 72.0963 59.183 70.4985 60.8422C68.9007 62.5322 66.5347 63.3772 63.4006 63.3772ZM62.6631 51.8085C64.1995 51.8085 65.5207 51.4551 66.6269 50.7484C67.7638 50.011 68.6395 48.997 69.2541 47.7064C69.8686 46.3852 70.1759 44.8335 70.1759 43.0513C70.1759 40.378 69.4999 38.2579 68.1479 36.6908C66.7959 35.1237 64.9676 34.3402 62.6631 34.3402C61.1268 34.3402 59.7901 34.6935 58.6532 35.4003C57.5163 36.107 56.6406 37.121 56.0261 38.4422C55.4423 39.7328 55.1504 41.2691 55.1504 43.0513C55.1504 45.7246 55.8263 47.8601 57.1783 49.4579C58.5303 51.025 60.3586 51.8085 62.6631 51.8085Z" fill="black"/>
<path d="M88.203 55.0809C86.4209 55.0809 84.9306 54.7583 83.7322 54.113C82.5646 53.4678 81.6889 52.4999 81.1051 51.2093C80.5213 49.9188 80.2294 48.321 80.2294 46.4159V33.5106C80.2294 33.0189 80.3523 32.6502 80.5981 32.4044C80.8439 32.1586 81.1973 32.0357 81.6582 32.0357C82.0883 32.0357 82.4263 32.1586 82.6722 32.4044C82.918 32.6502 83.0409 33.0189 83.0409 33.5106V46.2776C83.0409 48.4285 83.4864 50.0417 84.3775 51.1171C85.2686 52.1619 86.6667 52.6842 88.5717 52.6842C90.6612 52.6842 92.3512 51.9929 93.6417 50.6101C94.9322 49.1967 95.5775 47.3531 95.5775 45.0793V33.5106C95.5775 33.0189 95.7004 32.6502 95.9462 32.4044C96.1921 32.1586 96.5454 32.0357 97.0063 32.0357C97.4365 32.0357 97.7745 32.1586 98.0203 32.4044C98.2661 32.6502 98.389 33.0189 98.389 33.5106V53.5599C98.389 54.5125 97.9435 54.9888 97.0524 54.9888C96.6222 54.9888 96.2842 54.8658 96.0384 54.62C95.7926 54.3742 95.6697 54.0208 95.6697 53.5599V48.997L96.2228 49.3196C95.639 51.194 94.625 52.6228 93.1808 53.606C91.7366 54.5893 90.0774 55.0809 88.203 55.0809Z" fill="black"/>
<path d="M107.226 54.9888C106.765 54.9888 106.412 54.8658 106.166 54.62C105.92 54.3742 105.797 54.0208 105.797 53.5599V33.5106C105.797 33.0189 105.92 32.6502 106.166 32.4044C106.412 32.1586 106.765 32.0357 107.226 32.0357C107.656 32.0357 107.979 32.1586 108.194 32.4044C108.44 32.6502 108.563 33.0189 108.563 33.5106V37.6126H108.102C108.655 35.7997 109.638 34.4016 111.052 33.4184C112.496 32.4351 114.217 31.9281 116.214 31.8974C116.583 31.8667 116.89 31.9435 117.136 32.1278C117.381 32.3122 117.504 32.6041 117.504 33.0036C117.535 33.4337 117.443 33.7717 117.228 34.0176C117.013 34.2326 116.659 34.3709 116.168 34.4324L115.522 34.4785C113.341 34.6936 111.651 35.4156 110.453 36.6447C109.254 37.8738 108.655 39.5331 108.655 41.6225V53.5599C108.655 54.0208 108.532 54.3742 108.286 54.62C108.071 54.8658 107.718 54.9888 107.226 54.9888Z" fill="black"/>
<path d="M130.176 55.0809C128.087 55.0809 126.274 54.6047 124.738 53.6521C123.201 52.6996 122.003 51.363 121.143 49.6422C120.313 47.9215 119.898 45.8782 119.898 43.5122C119.898 41.7608 120.129 40.1783 120.59 38.7649C121.081 37.3514 121.773 36.1377 122.664 35.1237C123.585 34.079 124.676 33.2955 125.936 32.7731C127.227 32.22 128.64 31.9435 130.176 31.9435C132.297 31.9435 134.125 32.4198 135.661 33.3723C137.197 34.3248 138.38 35.6768 139.21 37.4283C140.07 39.149 140.501 41.1769 140.501 43.5122C140.501 45.2944 140.255 46.8922 139.763 48.3056C139.302 49.7191 138.611 50.9328 137.689 51.9468C136.798 52.9608 135.723 53.7443 134.463 54.2974C133.203 54.8197 131.774 55.0809 130.176 55.0809ZM130.176 52.7303C131.713 52.7303 133.034 52.377 134.14 51.6702C135.277 50.9328 136.137 49.8727 136.721 48.49C137.336 47.1073 137.643 45.448 137.643 43.5122C137.643 40.5931 136.967 38.3347 135.615 36.7369C134.294 35.1391 132.481 34.3402 130.176 34.3402C128.671 34.3402 127.349 34.7089 126.213 35.4464C125.106 36.1531 124.246 37.1978 123.632 38.5805C123.048 39.9325 122.756 41.5764 122.756 43.5122C122.756 46.462 123.432 48.7358 124.784 50.3336C126.136 51.9314 127.933 52.7303 130.176 52.7303Z" fill="black"/>
</svg>
